<svg id="cudzyslow1" xmlns="http://www.w3.org/2000/svg" xmlns:xlink="http://www.w3.org/1999/xlink" width="44.574" height="32.418" viewBox="0 0 44.574 32.418">
  <defs>
    <clipPath id="clip-path">
      <rect id="Rectangle_6" data-name="Rectangle 6" width="44.574" height="32.418" fill="#861a22"/>
    </clipPath>
  </defs>
  <g id="Group_3" data-name="Group 3" clip-path="url(#clip-path)">
    <path id="Path_74" data-name="Path 74" d="M10.506,32.418a9.6,9.6,0,0,1-7.354-3.352,11.433,11.433,0,0,1-2.3-3.777A12.46,12.46,0,0,1,0,20.812a17.878,17.878,0,0,1,3.1-9.63,27.505,27.505,0,0,1,8.3-8.28q4.4-2.9,6.9-2.9a2.334,2.334,0,0,1,1.651.6,2.071,2.071,0,0,1,.65,1.6,2.911,2.911,0,0,1-1.9,2.5,24.012,24.012,0,0,0-6.653,4.653q-2,2.149-2,3.151,0,.951,1.5,1.151l.651.1.75.05a8.114,8.114,0,0,1,5.278,3.026,9.487,9.487,0,0,1,2.026,6.129,9.109,9.109,0,0,1-2.5,6.4,9.5,9.5,0,0,1-7.254,3.052" transform="translate(23.963)" fill="#861a22"/>
    <path id="Path_75" data-name="Path 75" d="M34.469,32.418a9.6,9.6,0,0,1-7.354-3.352,11.45,11.45,0,0,1-2.3-3.777,12.438,12.438,0,0,1-.851-4.477,17.878,17.878,0,0,1,3.1-9.63,27.505,27.505,0,0,1,8.3-8.28q4.4-2.9,6.9-2.9a2.335,2.335,0,0,1,1.65.6,2.071,2.071,0,0,1,.65,1.6,2.909,2.909,0,0,1-1.9,2.5A24,24,0,0,0,36.02,9.356q-2,2.149-2,3.151,0,.951,1.5,1.151l.65.1.75.05A8.114,8.114,0,0,1,42.2,16.834a9.487,9.487,0,0,1,2.026,6.129,9.109,9.109,0,0,1-2.5,6.4,9.5,9.5,0,0,1-7.254,3.052" transform="translate(-23.963)" fill="#861a22"/>
  </g>
</svg>
