<svg xmlns="http://www.w3.org/2000/svg" width="23" height="23" viewBox="0 0 23 23">
  <g id="facebook" transform="translate(-0.001)">
    <g id="Group_87" data-name="Group 87" transform="translate(9.278 5.348)">
      <g id="Group_86" data-name="Group 86">
        <path id="Path_159" data-name="Path 159" d="M212.252,125.179a.679.679,0,0,1-.679-.679v-2.749a.766.766,0,0,1,.765-.765h2.355v-1.933h-2.355a2.7,2.7,0,0,0-2.7,2.7V124.5a.679.679,0,0,1-.679.679H206.52v1.933h2.441a.679.679,0,0,1,.679.679V136.7h1.933v-8.914a.679.679,0,0,1,.679-.679h2.441v-1.933h-2.441Z" transform="translate(-206.52 -119.053)" fill="#861a22"/>
      </g>
    </g>
    <g id="Group_89" data-name="Group 89" transform="translate(0.001)">
      <g id="Group_88" data-name="Group 88">
        <path id="Path_160" data-name="Path 160" d="M20.2,0H2.8A2.8,2.8,0,0,0,0,2.8V20.2A2.8,2.8,0,0,0,2.8,23H11.04V14.765H8.6a.679.679,0,0,1-.679-.679V10.795a.679.679,0,0,1,.679-.679H11.04V8.046A4.061,4.061,0,0,1,15.1,3.99h3.035a.679.679,0,0,1,.679.679V7.96a.679.679,0,0,1-.679.679H15.69v1.476h2.441a.679.679,0,0,1,.679.679v3.291a.679.679,0,0,1-.679.679H15.69V23H20.2A2.8,2.8,0,0,0,23,20.2V2.8A2.8,2.8,0,0,0,20.2,0Z" transform="translate(-0.001)" fill="#861a22"/>
      </g>
    </g>
  </g>
</svg>
