<svg id="instagram" xmlns="http://www.w3.org/2000/svg" width="23.667" height="23.667" viewBox="0 0 23.667 23.667">
  <g id="Group_91" data-name="Group 91" transform="translate(18.138 4.379)">
    <g id="Group_90" data-name="Group 90">
      <path id="Path_161" data-name="Path 161" d="M392.976,94.739a.575.575,0,1,0,.575.575A.575.575,0,0,0,392.976,94.739Z" transform="translate(-392.401 -94.739)" fill="#861a22"/>
    </g>
  </g>
  <g id="Group_93" data-name="Group 93" transform="translate(6.74 6.74)">
    <g id="Group_92" data-name="Group 92">
      <path id="Path_162" data-name="Path 162" d="M150.9,145.8a5.094,5.094,0,1,0,5.094,5.094A5.1,5.1,0,0,0,150.9,145.8Z" transform="translate(-145.804 -145.804)" fill="#861a22"/>
    </g>
  </g>
  <g id="Group_95" data-name="Group 95">
    <g id="Group_94" data-name="Group 94">
      <path id="Path_163" data-name="Path 163" d="M17.179,0H6.488A6.5,6.5,0,0,0,0,6.488V17.179a6.5,6.5,0,0,0,6.488,6.488H17.179a6.5,6.5,0,0,0,6.488-6.488V6.488A6.5,6.5,0,0,0,17.179,0ZM11.833,18.325a6.491,6.491,0,1,1,6.491-6.491A6.5,6.5,0,0,1,11.833,18.325Zm6.88-11.4a1.972,1.972,0,1,1,1.972-1.972A1.974,1.974,0,0,1,18.713,6.926Z" fill="#861a22"/>
    </g>
  </g>
</svg>
