<svg xmlns="http://www.w3.org/2000/svg" width="16.372" height="17.566" viewBox="0 0 16.372 17.566">
  <g id="telefon" transform="translate(-0.872 0)">
    <path id="Path_164" data-name="Path 164" d="M15.41,12.226c-1.061-.908-2.138-1.457-3.186-.551l-.626.548c-.458.4-1.309,2.255-4.6-1.531S5.664,6.321,6.122,5.926l.629-.548c1.043-.908.649-2.052-.1-3.229l-.454-.713C5.44.262,4.617-.509,3.571.4L3.007.891A5.3,5.3,0,0,0,.94,4.4c-.377,2.494.812,5.35,3.537,8.483s5.386,4.71,7.91,4.682a5.317,5.317,0,0,0,3.761-1.558l.567-.494c1.043-.906.395-1.829-.667-2.739Z" fill="#861a22"/>
  </g>
</svg>
